<?xml version="1.0" encoding="UTF-8" standalone="no"?>
<!DOCTYPE svg PUBLIC "-//W3C//DTD SVG 1.1//EN" "http://www.w3.org/Graphics/SVG/1.1/DTD/svg11.dtd">
<svg width="100%" height="100%" viewBox="0 0 800 800" version="1.1" xmlns="http://www.w3.org/2000/svg" xmlns:xlink="http://www.w3.org/1999/xlink" xml:space="preserve" xmlns:serif="http://www.serif.com/" style="fill-rule:evenodd;clip-rule:evenodd;stroke-linejoin:round;stroke-miterlimit:2;">
    <g transform="matrix(0.817944,0,0,0.817944,72.8222,72.8222)">
        <g transform="matrix(0.78125,0,0,0.78125,0,0)">
            <path d="M895.573,652.096C890.151,646.72 882.257,644.62 874.88,646.592C840.068,656.237 804.123,661.194 768,661.333C544.491,661.333 362.667,479.509 362.667,256C362.667,220.864 367.616,184.896 377.408,149.12C377.912,147.282 378.167,145.386 378.167,143.48C378.167,131.777 368.537,122.147 356.834,122.147C354.934,122.147 353.043,122.401 351.211,122.901C156.971,175.957 21.333,353.515 21.333,554.667C21.333,801.707 222.293,1002.67 469.333,1002.67C670.507,1002.67 848.043,867.029 901.077,672.811C903.094,665.428 900.988,657.504 895.573,652.096Z" style="fill:rgb(252,219,51);fill-rule:nonzero;"/>
        </g>
        <g transform="matrix(0.78125,0,0,0.78125,0,0)">
            <path d="M725.333,106.667C690.048,106.667 661.333,77.952 661.333,42.667C661.333,30.964 651.703,21.333 640,21.333C628.297,21.333 618.667,30.964 618.667,42.667C618.667,77.952 589.952,106.667 554.667,106.667C542.964,106.667 533.333,116.297 533.333,128C533.333,139.703 542.964,149.333 554.667,149.333C589.952,149.333 618.667,178.048 618.667,213.333C618.667,225.036 628.297,234.667 640,234.667C651.703,234.667 661.333,225.036 661.333,213.333C661.333,178.048 690.048,149.333 725.333,149.333C737.036,149.333 746.667,139.703 746.667,128C746.667,116.297 737.036,106.667 725.333,106.667L725.333,106.667ZM981.333,362.667C946.048,362.667 917.333,333.952 917.333,298.667C917.333,286.964 907.703,277.333 896,277.333C884.297,277.333 874.667,286.964 874.667,298.667C874.667,333.952 845.952,362.667 810.667,362.667C798.964,362.667 789.333,372.297 789.333,384C789.333,395.703 798.964,405.333 810.667,405.333C845.952,405.333 874.667,434.048 874.667,469.333C874.667,481.036 884.297,490.667 896,490.667C907.703,490.667 917.333,481.036 917.333,469.333C917.333,434.048 946.048,405.333 981.333,405.333C993.036,405.333 1002.67,395.703 1002.67,384C1002.67,372.297 993.036,362.667 981.333,362.667Z" style="fill:rgb(252,252,252);fill-rule:nonzero;"/>
        </g>
    </g>
</svg>
