<?xml version="1.0" encoding="UTF-8" standalone="no"?>
<!DOCTYPE svg PUBLIC "-//W3C//DTD SVG 1.1//EN" "http://www.w3.org/Graphics/SVG/1.1/DTD/svg11.dtd">
<svg width="100%" height="100%" viewBox="0 0 100 100" version="1.1" xmlns="http://www.w3.org/2000/svg" xmlns:xlink="http://www.w3.org/1999/xlink" xml:space="preserve" xmlns:serif="http://www.serif.com/" style="fill-rule:evenodd;clip-rule:evenodd;stroke-linejoin:round;stroke-miterlimit:2;">
    <g transform="matrix(0.608774,0,0,0.608774,12.5817,12.5817)">
        <path d="M30,13.21C29.633,12.599 29.438,11.899 29.438,11.185C29.438,9.029 31.212,7.255 33.368,7.255C34.791,7.255 36.107,8.028 36.8,9.27L41.86,18C42.216,18.606 42.404,19.297 42.404,20C42.404,22.166 40.621,23.949 38.455,23.949C37.056,23.949 35.758,23.206 35.05,22L30,13.21ZM61.45,26.21C80.766,26.225 96.653,42.124 96.653,61.44C96.653,80.767 80.749,96.67 61.423,96.67C42.096,96.67 26.193,80.767 26.193,61.44C26.193,52.096 29.91,43.125 36.52,36.52C43.12,29.904 52.095,26.187 61.44,26.2L61.45,26.21ZM58.31,4C58.307,3.934 58.305,3.868 58.305,3.801C58.305,1.634 60.088,-0.149 62.255,-0.149C64.422,-0.149 66.205,1.634 66.205,3.801C66.205,3.868 66.203,3.934 66.2,4L66.2,14.06C66.203,14.126 66.205,14.192 66.205,14.259C66.205,16.426 64.422,18.209 62.255,18.209C60.088,18.209 58.305,16.426 58.305,14.259C58.305,14.192 58.307,14.126 58.31,14.06L58.31,4ZM87.49,10.1C88.155,8.772 89.519,7.929 91.004,7.929C93.16,7.929 94.934,9.703 94.934,11.859C94.934,12.619 94.714,13.363 94.3,14L89.24,22.76C88.553,24.024 87.225,24.813 85.787,24.813C83.631,24.813 81.857,23.039 81.857,20.883C81.857,20.163 82.055,19.456 82.43,18.84L87.49,10.09L87.49,10.1ZM109.67,30C110.269,29.654 110.948,29.471 111.64,29.471C113.798,29.471 115.574,31.247 115.574,33.405C115.574,34.807 114.824,36.108 113.61,36.81L104.86,41.87C104.254,42.226 103.563,42.414 102.86,42.414C100.694,42.414 98.911,40.631 98.911,38.465C98.911,37.066 99.654,35.768 100.86,35.06L109.67,30ZM118.93,58.32C118.996,58.317 119.062,58.315 119.129,58.315C121.296,58.315 123.079,60.098 123.079,62.265C123.079,64.432 121.296,66.215 119.129,66.215C119.062,66.215 118.996,66.213 118.93,66.21L108.82,66.21C108.754,66.213 108.688,66.215 108.621,66.215C106.454,66.215 104.671,64.432 104.671,62.265C104.671,60.098 106.454,58.315 108.621,58.315C108.688,58.315 108.754,58.317 108.82,58.32L118.93,58.32ZM112.78,87.5C114.082,88.174 114.902,89.523 114.902,90.99C114.902,93.146 113.128,94.92 110.972,94.92C110.228,94.92 109.499,94.708 108.87,94.31L100.11,89.25C98.796,88.58 97.965,87.224 97.965,85.749C97.965,83.593 99.739,81.819 101.895,81.819C102.641,81.819 103.371,82.031 104,82.43L112.75,87.49L112.78,87.5ZM92.89,109.67C93.236,110.269 93.419,110.948 93.419,111.64C93.419,113.798 91.643,115.574 89.485,115.574C88.083,115.574 86.782,114.824 86.08,113.61L81,104.86C80.644,104.254 80.456,103.563 80.456,102.86C80.456,100.694 82.239,98.911 84.405,98.911C85.804,98.911 87.102,99.654 87.81,100.86L92.87,109.62L92.89,109.67ZM64.57,118.93C64.573,118.996 64.575,119.062 64.575,119.129C64.575,121.296 62.792,123.079 60.625,123.079C58.458,123.079 56.675,121.296 56.675,119.129C56.675,119.062 56.677,118.996 56.68,118.93L56.68,108.82C56.677,108.754 56.675,108.688 56.675,108.621C56.675,106.454 58.458,104.671 60.625,104.671C62.792,104.671 64.575,106.454 64.575,108.621C64.575,108.688 64.573,108.754 64.57,108.82L64.57,118.93ZM35.39,112.78C34.67,113.917 33.415,114.608 32.07,114.608C29.914,114.608 28.14,112.834 28.14,110.678C28.14,110.049 28.291,109.429 28.58,108.87L33.64,100.11C34.297,98.76 35.673,97.899 37.174,97.899C39.33,97.899 41.104,99.673 41.104,101.829C41.104,102.601 40.877,103.356 40.45,104L35.39,112.75L35.39,112.78ZM13.21,92.89C12.611,93.236 11.932,93.419 11.24,93.419C9.082,93.419 7.306,91.643 7.306,89.485C7.306,88.083 8.056,86.782 9.27,86.08L18,81C18.607,80.645 19.297,80.457 20,80.457C22.171,80.457 23.958,82.244 23.958,84.415C23.958,85.818 23.211,87.121 22,87.83L13.24,92.89L13.21,92.89ZM4,64.57C3.934,64.573 3.868,64.575 3.801,64.575C1.634,64.575 -0.149,62.792 -0.149,60.625C-0.149,58.458 1.634,56.675 3.801,56.675C3.868,56.675 3.934,56.677 4,56.68L14.06,56.68C14.126,56.677 14.192,56.675 14.259,56.675C16.426,56.675 18.209,58.458 18.209,60.625C18.209,62.792 16.426,64.575 14.259,64.575C14.192,64.575 14.126,64.573 14.06,64.57L4,64.57ZM10.1,35.39C8.772,34.725 7.929,33.361 7.929,31.876C7.929,29.72 9.703,27.946 11.859,27.946C12.619,27.946 13.363,28.166 14,28.58L22.76,33.64C24.024,34.327 24.813,35.655 24.813,37.093C24.813,39.249 23.039,41.023 20.883,41.023C20.163,41.023 19.456,40.825 18.84,40.45L10.1,35.39Z" style="fill:rgb(252,219,51);fill-rule:nonzero;"/>
    </g>
</svg>
